M48
INCH,LZ
;FILE_FORMAT=2:4
;TYPE=PLATED
;Layer: PTH_Through
;EasyEDA v6.5.51, 2025-11-17 10:52:57
;3e288904024a45bc9db40e04d1f5bb92,1baaa656111f43739499d1d4c9c00a24,10
;Gerber Generator version 0.2
;Holesize 1 = 0.0360 inch
T01C0.0360
;Holesize 2 = 0.0400 inch
T02C0.0400
;Holesize 3 = 0.0470 inch
T03C0.0470
;Holesize 4 = 0.0710 inch
T04C0.0710
%
G05
G90
T01
X012394Y-028600
X012796Y-029300
X013198Y-028600
X013599Y-029300
X014001Y-028600
X014402Y-029300
X014804Y-028600
X015206Y-029300
X023444Y-028400
X023846Y-029100
X024248Y-028400
X024649Y-029100
X025051Y-028400
X025452Y-029100
X025854Y-028400
X026256Y-029100
X033444Y-028450
X033846Y-029150
X034248Y-028450
X034649Y-029150
X035051Y-028450
X035452Y-029150
X035854Y-028450
X036256Y-029150
X042744Y-028450
X043146Y-029150
X043548Y-028450
X043949Y-029150
X044351Y-028450
X044752Y-029150
X045154Y-028450
X045556Y-029150
X025750Y019400
X025750Y018400
X025750Y017400
X025750Y016400
X025750Y015400
X025750Y014400
X025750Y013400
X025750Y012400
X025750Y011400
X025750Y010400
X025750Y009400
X025750Y008400
X025750Y007400
X025750Y006400
X025750Y005400
X025750Y004400
X025750Y003400
X025750Y002400
X025750Y001400
X036750Y001400
X036750Y002400
X036750Y003400
X036750Y004400
X036750Y005400
X036750Y006400
X036750Y007400
X036750Y008400
X036750Y009400
X036750Y010400
X036750Y011400
X036750Y012400
X036750Y013400
X036750Y014400
X036750Y015400
X036750Y016400
X036750Y017400
X036750Y018400
X036750Y019400
T02
X006975Y020450
X006975Y019450
X006975Y018450
X006975Y017450
X006975Y016450
X006975Y015450
X006975Y014450
X006975Y013450
X016825Y020450
X016825Y019450
X016825Y018450
X016825Y017450
X016825Y016450
X016825Y015450
X016825Y014450
X016825Y013450
X015450Y008150
X019535Y009885
X014950Y-031450
X017850Y-031450
X025854Y-025300
X024000Y-022200
X017700Y-025550
X018300Y-021759
X018603Y-014747
X019800Y-014900
X020100Y-010450
X019900Y-007850
X012750Y003850
X018800Y012500
X018900Y014300
X019750Y017600
X016150Y000500
X016800Y006600
X016200Y008900
X018500Y010100
X020300Y012700
X020900Y015550
X029250Y-024100
X029250Y-019300
X029250Y001750
X029250Y007100
X008850Y-031450
X004700Y-023850
X010500Y-020050
X016650Y-020050
X030500Y-017750
X031850Y-000150
X031850Y006400
X015400Y-024650
X010400Y-022250
X037600Y-024350
X039900Y-024150
T03
X022550Y019700
X022550Y018700
X022550Y017700
X022550Y016700
X022550Y015700
X022550Y014700
X022550Y013700
X022550Y012700
X022550Y011700
X022550Y010700
X022550Y009700
X022550Y008700
X022550Y007700
X022550Y006700
X022550Y005700
X022550Y004700
X022550Y003700
X022550Y002700
X022550Y001700
X022550Y000700
X040350Y019400
X040350Y018400
X040350Y017400
X040350Y016400
X040350Y015400
X040350Y014400
X040350Y013400
X040350Y012400
X040350Y011400
X040350Y010400
X040350Y009400
X040350Y008400
X040350Y007400
X040350Y006400
X040350Y005400
X040350Y004400
X040350Y003400
X040350Y002400
X040350Y001400
X040350Y000400
T04
X017001Y-028899
X010599Y-028899
X028051Y-028699
X021649Y-028699
X038051Y-028749
X031649Y-028749
X047351Y-028749
X040949Y-028749
M30
