M48
INCH,LZ
;FILE_FORMAT=2:4
;TYPE=PLATED
;Layer: PTH_Through_Via
;EasyEDA v6.5.51, 2025-11-17 10:52:57
;3e288904024a45bc9db40e04d1f5bb92,1baaa656111f43739499d1d4c9c00a24,10
;Gerber Generator version 0.2
;Holesize 1 = 0.0400 inch
T01C0.0400
%
G05
G90
T01
X015450Y008150
X019535Y009885
X014950Y-031450
X017850Y-031450
X025854Y-025300
X024000Y-022200
X017700Y-025550
X018300Y-021759
X018603Y-014747
X019800Y-014900
X020100Y-010450
X019900Y-007850
X012750Y003850
X018800Y012500
X018900Y014300
X019750Y017600
X016150Y000500
X016800Y006600
X016200Y008900
X018500Y010100
X020300Y012700
X020900Y015550
X029250Y-024100
X029250Y-019300
X029250Y001750
X029250Y007100
X008850Y-031450
X004700Y-023850
X010500Y-020050
X016650Y-020050
X030500Y-017750
X031850Y-000150
X031850Y006400
X015400Y-024650
X010400Y-022250
X037600Y-024350
X039900Y-024150
M30
