G04 Layer: BottomLayer*
G04 EasyEDA v6.5.51, 2025-11-17 10:52:57*
G04 3e288904024a45bc9db40e04d1f5bb92,1baaa656111f43739499d1d4c9c00a24,10*
G04 Gerber Generator version 0.2*
G04 Scale: 100 percent, Rotated: No, Reflected: No *
G04 Dimensions in inches *
G04 leading zeros omitted , absolute positions ,3 integer and 6 decimal *
%FSLAX36Y36*%
%MOIN*%

%AMMACRO1*21,1,$1,$2,0,0,$3*%
%ADD10C,0.0500*%
%ADD11R,0.0709X0.0709*%
%ADD12C,0.0709*%
%ADD13C,0.0906*%
%ADD14C,0.0600*%
%ADD15C,0.0197*%
%ADD16MACRO1,0.06X0.06X0.0000*%
%ADD17R,0.0700X0.0700*%
%ADD18C,0.0800*%

%LPD*%
D10*
X3585390Y-2844960D02*
G01*
X3605038Y-2844960D01*
X3760000Y-2690000D01*
X3760000Y-2435000D01*
X1040000Y-2225000D02*
G01*
X658985Y-1843985D01*
X658985Y89953D01*
X1770000Y-2555000D02*
G01*
X1770000Y-2420000D01*
X1695000Y-2345000D01*
X1155000Y-2345000D01*
X1035000Y-2465000D01*
X1135000Y-2465000D01*
X1405000Y-2735000D01*
X1405000Y-2855039D01*
X1400079Y-2859960D01*
X2625600Y-2910000D02*
G01*
X2649300Y-2886300D01*
X2649300Y-2385700D01*
X2535000Y-2290000D01*
X1136300Y-2275000D01*
X924799Y-2486500D01*
X1400100Y-2860000D02*
G01*
X1400079Y-2859960D01*
X915000Y-2475000D02*
G01*
X1110000Y-2705000D01*
X1220000Y-2715000D01*
X1319799Y-2860000D01*
X3185000Y640000D02*
G01*
X3185000Y955000D01*
X3100000Y1040000D01*
X2575000Y1040000D01*
X1050000Y-2005000D02*
G01*
X1665000Y-2005000D01*
X885000Y-3145000D02*
G01*
X645000Y-3145000D01*
X470000Y-2970000D01*
X470000Y-2385000D01*
X2925000Y710000D02*
G01*
X2805000Y710000D01*
X2575000Y940000D01*
X2925000Y-1930000D02*
G01*
X2925000Y175000D01*
X3545240Y-2915039D02*
G01*
X3545240Y-3014760D01*
X3400000Y-3160000D01*
X3005000Y-3160000D01*
X3005000Y-3155000D01*
X2925000Y-3075000D01*
X2925000Y-2410000D01*
X3625600Y-2995100D02*
G01*
X3535000Y-3260000D01*
X2493100Y-3249400D01*
X1850000Y1010000D02*
G01*
X1850000Y1090000D01*
X2030000Y1270000D01*
X1680000Y660000D02*
G01*
X1620000Y720000D01*
X1620000Y890000D01*
X2010000Y-1045000D02*
G01*
X2090000Y-965000D01*
X2090000Y-755000D01*
X1995000Y-660000D01*
X1815000Y-660000D01*
X1815000Y-655000D01*
X1720000Y-560000D01*
X1720000Y-55000D01*
X1615000Y50000D01*
X2010000Y-1045000D02*
G01*
X2090000Y-965000D01*
X2090000Y-755000D01*
X1995000Y-660000D01*
X1815000Y-660000D01*
X1815000Y-655000D01*
X1720000Y-560000D01*
X1720000Y-175000D01*
X1880000Y1250000D02*
G01*
X1890000Y1260000D01*
X1890000Y1430000D01*
X1990000Y-785000D02*
G01*
X1815000Y-785000D01*
X1205000Y-175000D01*
X1205000Y315000D01*
X1275000Y385000D01*
X1990000Y-785000D02*
G01*
X1815000Y-785000D01*
X1480000Y-450000D01*
X2400000Y-2220000D02*
G01*
X2195000Y-2220000D01*
X1980000Y-2005000D01*
X1980000Y-1490000D01*
X2585389Y-2839960D02*
G01*
X2585389Y-2530000D01*
X1520600Y-2930000D02*
G01*
X1520600Y-3064800D01*
X1725699Y-3270000D01*
X2472500Y-3270000D01*
X2625600Y-3116900D01*
X1440240Y-2930039D02*
G01*
X1440240Y-3090239D01*
X1495000Y-3145000D01*
X1682500Y1945000D02*
G01*
X1580000Y1945000D01*
X1410000Y1775000D01*
X1410000Y950000D01*
X1545000Y815000D01*
X1953519Y988519D02*
G01*
X1953519Y981480D01*
X2175000Y760000D01*
X2245000Y760000D01*
X2255000Y770000D01*
X1682500Y1745000D02*
G01*
X1662847Y1745000D01*
X1610087Y1692240D01*
X1610087Y1014909D01*
X2255000Y370000D01*
X2255000Y1970000D02*
G01*
X2169539Y1970000D01*
X3625550Y-2915039D02*
G01*
X3625550Y-2995070D01*
X2625550Y-3116909D02*
G01*
X2625550Y-2910039D01*
X2212100Y-2755870D02*
G01*
X2428649Y-2755870D01*
X2505079Y-2832300D01*
X2505079Y-2839960D01*
X1682500Y1845000D02*
G01*
X1762529Y1845000D01*
X697500Y1645000D02*
G01*
X777529Y1645000D01*
X1762529Y1645000D02*
G01*
X1762529Y962469D01*
X2255000Y470000D01*
X1682500Y1645000D02*
G01*
X1762529Y1645000D01*
X4012219Y1940000D02*
G01*
X4035000Y1940000D01*
X4012219Y1940000D02*
G01*
X3675000Y1940000D01*
X697500Y2045000D02*
G01*
X607471Y2045000D01*
X607469Y2045000D02*
G01*
X563049Y2000580D01*
X563049Y185889D01*
X3585389Y-2836450D01*
X3585389Y-2844960D01*
X3675000Y1840000D02*
G01*
X4035000Y1840000D01*
X3675000Y1740000D02*
G01*
X4035000Y1740000D01*
X3675000Y1640000D02*
G01*
X4035000Y1640000D01*
X3675000Y1540000D02*
G01*
X4035000Y1540000D01*
X3675000Y1440000D02*
G01*
X4035000Y1440000D01*
X3675000Y1340000D02*
G01*
X4035000Y1340000D01*
X3675000Y1240000D02*
G01*
X4035000Y1240000D01*
X4515389Y-2844960D02*
G01*
X4515389Y759609D01*
X4035000Y1240000D01*
X3675000Y1140000D02*
G01*
X4035000Y1140000D01*
X3675000Y1040000D02*
G01*
X4035000Y1040000D01*
X3675000Y940000D02*
G01*
X4035000Y940000D01*
X3675000Y840000D02*
G01*
X4035000Y840000D01*
X3675000Y740000D02*
G01*
X4035000Y740000D01*
X3675000Y640000D02*
G01*
X4035000Y640000D01*
X3675000Y540000D02*
G01*
X4035000Y540000D01*
X3675000Y440000D02*
G01*
X4035000Y440000D01*
X3675000Y340000D02*
G01*
X4035000Y340000D01*
X3675000Y240000D02*
G01*
X4035000Y240000D01*
X3675000Y140000D02*
G01*
X4035000Y140000D01*
X2255000Y970000D02*
G01*
X2545000Y970000D01*
X2575000Y940000D01*
X2255000Y1070000D02*
G01*
X2285000Y1040000D01*
X2575000Y1040000D01*
X1975000Y1760000D02*
G01*
X2100000Y1760000D01*
X2190000Y1670000D01*
X2255000Y1670000D01*
X1279600Y-2930000D02*
G01*
X1220000Y-2930000D01*
X400000Y-2110000D01*
X400000Y2045000D01*
X590000Y2235000D01*
X2640000Y2235000D01*
X2785000Y2090000D01*
X2785000Y1705000D01*
X2620000Y1540000D01*
X2575000Y1540000D01*
X915000Y-2475000D02*
G01*
X480000Y-2040000D01*
X480000Y2020000D01*
X595000Y2135000D01*
X795000Y2135000D01*
X886000Y2135000D02*
G01*
X815000Y2064000D01*
X815000Y1905000D01*
X755000Y1845000D01*
X697500Y1845000D01*
X795000Y2135000D02*
G01*
X793000Y2135000D01*
X2004499Y2135000D01*
X2169499Y1970000D01*
X2255000Y1970000D02*
G01*
X2440000Y1970000D01*
X2470000Y1940000D01*
X2575000Y1940000D01*
X2575000Y1840000D02*
G01*
X2430000Y1840000D01*
X2400000Y1870000D01*
X2255000Y1870000D01*
X2575000Y1740000D02*
G01*
X2400000Y1740000D01*
X2370000Y1770000D01*
X2255000Y1770000D01*
X2255000Y1670000D02*
G01*
X2345000Y1670000D01*
X2375000Y1640000D01*
X2575000Y1640000D01*
X2575000Y1340000D02*
G01*
X2425000Y1340000D01*
X2395000Y1370000D01*
X2255000Y1370000D01*
X2090000Y1555000D02*
G01*
X2175000Y1470000D01*
X2255000Y1470000D01*
X2255000Y1570000D02*
G01*
X2330000Y1570000D01*
X2360000Y1540000D01*
X2575000Y1540000D01*
X2255000Y1470000D02*
G01*
X2405000Y1470000D01*
X2435000Y1440000D01*
X2575000Y1440000D01*
X2575000Y1240000D02*
G01*
X2400000Y1240000D01*
X2370000Y1270000D01*
X2255000Y1270000D01*
X2575000Y1140000D02*
G01*
X2380000Y1140000D01*
X2350000Y1170000D01*
X2255000Y1170000D01*
X2575000Y240000D02*
G01*
X2400000Y240000D01*
X2370000Y270000D01*
X2255000Y270000D01*
X2575000Y340000D02*
G01*
X2450000Y340000D01*
X2420000Y370000D01*
X2255000Y370000D01*
X2575000Y440000D02*
G01*
X2465000Y440000D01*
X2435000Y470000D01*
X2255000Y470000D01*
X2255000Y670000D02*
G01*
X2395000Y670000D01*
X2425000Y640000D01*
X2575000Y640000D01*
X2255000Y570000D02*
G01*
X2370000Y570000D01*
X2400000Y540000D01*
X2575000Y540000D01*
X2255000Y870000D02*
G01*
X2420000Y870000D01*
X2450000Y840000D01*
X2575000Y840000D01*
X2575000Y740000D02*
G01*
X2440000Y740000D01*
X2410000Y770000D01*
X2255000Y770000D01*
X2575000Y140000D02*
G01*
X2385000Y140000D01*
X2355000Y170000D01*
X2255000Y170000D01*
X2255000Y1270000D02*
G01*
X2205000Y1270000D01*
X1842299Y1632699D01*
X1842299Y1782300D01*
X1762500Y1845000D01*
X2575000Y540000D02*
G01*
X2610000Y540000D01*
X2680000Y470000D01*
X2680000Y110000D01*
X2567899Y-2100D01*
X2233000Y-2100D01*
X777500Y1453299D01*
X777500Y1645000D01*
X697500Y1745000D02*
G01*
X675999Y1745000D01*
X623499Y1692600D01*
X623499Y1298000D01*
X2026599Y-105000D01*
X2595000Y-105000D01*
X2795000Y95000D01*
X2795000Y475000D01*
X2630000Y640000D01*
X2575000Y640000D01*
X4012222Y1940000D02*
G01*
X4029092Y1940000D01*
X4650000Y1319092D01*
X4650000Y-2820590D01*
X4555550Y-2915039D01*
X3990000Y-2415000D02*
G01*
X3985000Y-2410000D01*
X3985000Y-2410000D01*
X3985000Y-2410000D01*
X3985000Y-2410000D01*
X3990000Y-3105000D01*
X4080000Y-3195000D01*
X4395000Y-3195000D01*
X4480000Y-3110000D01*
X4480000Y-3040000D01*
X4555600Y-2964499D01*
X4555600Y-2915000D01*
X1359899Y-2930000D02*
G01*
X1359899Y-3114899D01*
X1585000Y-3340000D01*
X3675000Y-3340000D01*
X3882299Y-3132700D01*
X3882299Y-467300D01*
X2575000Y840000D01*
X1785000Y-3145000D02*
G01*
X1960000Y-3145000D01*
X2015000Y-3200000D01*
X2385000Y-3200000D01*
X2545200Y-3039800D01*
X2545200Y-2910000D01*
X2464899Y-2910000D02*
G01*
X2464899Y-2995100D01*
X2335000Y-3125000D01*
X2105000Y-3125000D01*
X1792700Y-2812700D01*
X1527600Y-2812700D01*
X1480399Y-2860000D01*
X1792700Y-2812700D02*
G01*
X1790000Y-2812700D01*
X1790000Y-2715000D01*
X1540000Y-2465000D01*
X2212100Y-2755870D02*
G01*
X1970870Y-2755870D01*
X1770000Y-2555000D01*
X3050000Y-1775000D02*
G01*
X3190000Y-1775000D01*
X3400000Y-1565000D01*
X3400000Y-230000D01*
X3185000Y-15000D01*
X1830000Y-2175900D02*
G01*
X1860330Y-1474670D01*
X1860330Y-1474670D01*
D11*
G01*
X2255000Y1970000D03*
D12*
G01*
X2255000Y1870000D03*
G01*
X2255000Y1770000D03*
G01*
X2255000Y1670000D03*
G01*
X2255000Y1570000D03*
G01*
X2255000Y1470000D03*
G01*
X2255000Y1370000D03*
G01*
X2255000Y1270000D03*
G01*
X2255000Y1170000D03*
G01*
X2255000Y1070000D03*
G01*
X2255000Y970000D03*
G01*
X2255000Y870000D03*
G01*
X2255000Y770000D03*
G01*
X2255000Y670000D03*
G01*
X2255000Y570000D03*
G01*
X2255000Y470000D03*
G01*
X2255000Y370000D03*
G01*
X2255000Y270000D03*
G01*
X2255000Y170000D03*
G01*
X2255000Y70000D03*
D11*
G01*
X4035000Y1940000D03*
D12*
G01*
X4035000Y1840000D03*
G01*
X4035000Y1740000D03*
G01*
X4035000Y1640000D03*
G01*
X4035000Y1540000D03*
G01*
X4035000Y1440000D03*
G01*
X4035000Y1340000D03*
G01*
X4035000Y1240000D03*
G01*
X4035000Y1140000D03*
G01*
X4035000Y1040000D03*
G01*
X4035000Y940000D03*
G01*
X4035000Y840000D03*
G01*
X4035000Y740000D03*
G01*
X4035000Y640000D03*
G01*
X4035000Y540000D03*
G01*
X4035000Y440000D03*
G01*
X4035000Y340000D03*
G01*
X4035000Y240000D03*
G01*
X4035000Y140000D03*
G01*
X4035000Y40000D03*
D13*
G01*
X1700079Y-2889879D03*
G01*
X1059920Y-2889879D03*
D14*
G01*
X1239449Y-2859960D03*
G01*
X1279610Y-2930039D03*
G01*
X1319759Y-2859960D03*
G01*
X1359920Y-2930039D03*
G01*
X1400079Y-2859960D03*
G01*
X1440240Y-2930039D03*
G01*
X1480389Y-2859960D03*
D16*
G01*
X1520550Y-2930043D03*
D13*
G01*
X2805079Y-2869879D03*
G01*
X2164920Y-2869879D03*
D14*
G01*
X2344449Y-2839960D03*
G01*
X2384610Y-2910039D03*
G01*
X2424759Y-2839960D03*
G01*
X2464920Y-2910039D03*
G01*
X2505079Y-2839960D03*
G01*
X2545240Y-2910039D03*
G01*
X2585389Y-2839960D03*
D16*
G01*
X2625550Y-2910043D03*
D13*
G01*
X3805079Y-2874879D03*
G01*
X3164920Y-2874879D03*
D14*
G01*
X3344449Y-2844960D03*
G01*
X3384610Y-2915039D03*
G01*
X3424759Y-2844960D03*
G01*
X3464920Y-2915039D03*
G01*
X3505079Y-2844960D03*
G01*
X3545240Y-2915039D03*
G01*
X3585389Y-2844960D03*
D16*
G01*
X3625550Y-2915043D03*
D13*
G01*
X4735079Y-2874879D03*
G01*
X4094920Y-2874879D03*
D14*
G01*
X4274449Y-2844960D03*
G01*
X4314610Y-2915039D03*
G01*
X4354759Y-2844960D03*
G01*
X4394920Y-2915039D03*
G01*
X4435079Y-2844960D03*
G01*
X4475240Y-2915039D03*
G01*
X4515389Y-2844960D03*
D16*
G01*
X4555550Y-2915043D03*
D14*
G01*
X2575000Y1940000D03*
G01*
X2575000Y1840000D03*
G01*
X2575000Y1740000D03*
G01*
X2575000Y1640000D03*
G01*
X2575000Y1540000D03*
G01*
X2575000Y1440000D03*
G01*
X2575000Y1340000D03*
G01*
X2575000Y1240000D03*
G01*
X2575000Y1140000D03*
G01*
X2575000Y1040000D03*
G01*
X2575000Y940000D03*
G01*
X2575000Y840000D03*
G01*
X2575000Y740000D03*
G01*
X2575000Y640000D03*
G01*
X2575000Y540000D03*
G01*
X2575000Y440000D03*
G01*
X2575000Y340000D03*
G01*
X2575000Y240000D03*
G01*
X2575000Y140000D03*
G01*
X3675000Y140000D03*
G01*
X3675000Y240000D03*
G01*
X3675000Y340000D03*
G01*
X3675000Y440000D03*
G01*
X3675000Y540000D03*
G01*
X3675000Y640000D03*
G01*
X3675000Y740000D03*
G01*
X3675000Y840000D03*
G01*
X3675000Y940000D03*
G01*
X3675000Y1040000D03*
G01*
X3675000Y1140000D03*
G01*
X3675000Y1240000D03*
G01*
X3675000Y1340000D03*
G01*
X3675000Y1440000D03*
G01*
X3675000Y1540000D03*
G01*
X3675000Y1640000D03*
G01*
X3675000Y1740000D03*
G01*
X3675000Y1840000D03*
G01*
X3675000Y1940000D03*
D17*
G01*
X697500Y2045000D03*
G01*
X697500Y1945000D03*
G01*
X697500Y1845000D03*
G01*
X697500Y1745000D03*
G01*
X697500Y1645000D03*
G01*
X697500Y1545000D03*
G01*
X697500Y1445000D03*
G01*
X697500Y1345000D03*
G01*
X1682500Y2045000D03*
G01*
X1682500Y1945000D03*
G01*
X1682500Y1845000D03*
G01*
X1682500Y1745000D03*
G01*
X1682500Y1645000D03*
G01*
X1682500Y1545000D03*
G01*
X1682500Y1445000D03*
G01*
X1682500Y1345000D03*
D18*
G01*
X1545000Y815000D03*
G01*
X1953519Y988519D03*
G01*
X1495000Y-3145000D03*
G01*
X1785000Y-3145000D03*
G01*
X2585389Y-2530000D03*
G01*
X2400000Y-2220000D03*
G01*
X1770000Y-2555000D03*
G01*
X1830000Y-2175900D03*
G01*
X1860330Y-1474670D03*
G01*
X1980000Y-1490000D03*
G01*
X2010000Y-1045000D03*
G01*
X1990000Y-785000D03*
G01*
X1275000Y385000D03*
G01*
X1880000Y1250000D03*
G01*
X1890000Y1430000D03*
G01*
X1975000Y1760000D03*
G01*
X1615000Y50000D03*
G01*
X1680000Y660000D03*
G01*
X1620000Y890000D03*
G01*
X1850000Y1010000D03*
G01*
X2030000Y1270000D03*
G01*
X2090000Y1555000D03*
G01*
X2925000Y-2410000D03*
G01*
X2925000Y-1930000D03*
G01*
X2925000Y175000D03*
G01*
X2925000Y710000D03*
G01*
X885000Y-3145000D03*
G01*
X470000Y-2385000D03*
G01*
X1050000Y-2005000D03*
G01*
X1665000Y-2005000D03*
G01*
X3050000Y-1775000D03*
G01*
X3185000Y-15000D03*
G01*
X3185000Y640000D03*
G01*
X1540000Y-2465000D03*
G01*
X1040000Y-2225000D03*
G01*
X3760000Y-2435000D03*
G01*
X3990000Y-2415000D03*
M02*
