G04 Layer: BottomSolderMaskLayer*
G04 EasyEDA v6.5.51, 2025-11-17 10:52:57*
G04 3e288904024a45bc9db40e04d1f5bb92,1baaa656111f43739499d1d4c9c00a24,10*
G04 Gerber Generator version 0.2*
G04 Scale: 100 percent, Rotated: No, Reflected: No *
G04 Dimensions in inches *
G04 leading zeros omitted , absolute positions ,3 integer and 6 decimal *
%FSLAX36Y36*%
%MOIN*%

%AMMACRO1*4,1,8,-0.0363,-0.0374,-0.0374,-0.0362,-0.0374,0.0363,-0.0363,0.0374,0.0362,0.0374,0.0374,0.0363,0.0374,-0.0362,0.0362,-0.0374,-0.0363,-0.0374,0*%
%AMMACRO2*4,1,8,-0.0308,-0.032,-0.032,-0.0308,-0.032,0.0308,-0.0308,0.032,0.0308,0.032,0.032,0.0308,0.032,-0.0308,0.0308,-0.032,-0.0308,-0.032,0*%
%AMMACRO3*4,1,8,-0.0367,-0.039,-0.039,-0.0366,-0.039,0.0367,-0.0367,0.039,0.0366,0.039,0.039,0.0367,0.039,-0.0366,0.0366,-0.039,-0.0367,-0.039,0*%
%ADD10MACRO1*%
%ADD11C,0.0749*%
%ADD12C,0.0945*%
%ADD13C,0.0639*%
%ADD14MACRO2*%
%ADD15C,0.0640*%
%ADD16MACRO3*%
%ADD17C,0.0151*%

%LPD*%
D10*
G01*
X2255000Y1970000D03*
D11*
G01*
X2255000Y1870000D03*
G01*
X2255000Y1770000D03*
G01*
X2255000Y1670000D03*
G01*
X2255000Y1570000D03*
G01*
X2255000Y1470000D03*
G01*
X2255000Y1370000D03*
G01*
X2255000Y1270000D03*
G01*
X2255000Y1170000D03*
G01*
X2255000Y1070000D03*
G01*
X2255000Y970000D03*
G01*
X2255000Y870000D03*
G01*
X2255000Y770000D03*
G01*
X2255000Y670000D03*
G01*
X2255000Y570000D03*
G01*
X2255000Y470000D03*
G01*
X2255000Y370000D03*
G01*
X2255000Y270000D03*
G01*
X2255000Y170000D03*
G01*
X2255000Y70000D03*
D10*
G01*
X4035000Y1940000D03*
D11*
G01*
X4035000Y1840000D03*
G01*
X4035000Y1740000D03*
G01*
X4035000Y1640000D03*
G01*
X4035000Y1540000D03*
G01*
X4035000Y1440000D03*
G01*
X4035000Y1340000D03*
G01*
X4035000Y1240000D03*
G01*
X4035000Y1140000D03*
G01*
X4035000Y1040000D03*
G01*
X4035000Y940000D03*
G01*
X4035000Y840000D03*
G01*
X4035000Y740000D03*
G01*
X4035000Y640000D03*
G01*
X4035000Y540000D03*
G01*
X4035000Y440000D03*
G01*
X4035000Y340000D03*
G01*
X4035000Y240000D03*
G01*
X4035000Y140000D03*
G01*
X4035000Y40000D03*
D12*
G01*
X1700079Y-2889879D03*
G01*
X1059920Y-2889879D03*
D13*
G01*
X1239449Y-2859960D03*
G01*
X1279610Y-2930039D03*
G01*
X1319759Y-2859960D03*
G01*
X1359920Y-2930039D03*
G01*
X1400079Y-2859960D03*
G01*
X1440240Y-2930039D03*
G01*
X1480389Y-2859960D03*
D14*
G01*
X1520550Y-2930039D03*
D12*
G01*
X2805079Y-2869879D03*
G01*
X2164920Y-2869879D03*
D13*
G01*
X2344449Y-2839960D03*
G01*
X2384610Y-2910039D03*
G01*
X2424759Y-2839960D03*
G01*
X2464920Y-2910039D03*
G01*
X2505079Y-2839960D03*
G01*
X2545240Y-2910039D03*
G01*
X2585389Y-2839960D03*
D14*
G01*
X2625550Y-2910039D03*
D12*
G01*
X3805079Y-2874879D03*
G01*
X3164920Y-2874879D03*
D13*
G01*
X3344449Y-2844960D03*
G01*
X3384610Y-2915039D03*
G01*
X3424759Y-2844960D03*
G01*
X3464920Y-2915039D03*
G01*
X3505079Y-2844960D03*
G01*
X3545240Y-2915039D03*
G01*
X3585389Y-2844960D03*
D14*
G01*
X3625550Y-2915039D03*
D12*
G01*
X4735079Y-2874879D03*
G01*
X4094920Y-2874879D03*
D13*
G01*
X4274449Y-2844960D03*
G01*
X4314610Y-2915039D03*
G01*
X4354759Y-2844960D03*
G01*
X4394920Y-2915039D03*
G01*
X4435079Y-2844960D03*
G01*
X4475240Y-2915039D03*
G01*
X4515389Y-2844960D03*
D14*
G01*
X4555550Y-2915039D03*
D15*
G01*
X2575000Y1940000D03*
G01*
X2575000Y1840000D03*
G01*
X2575000Y1740000D03*
G01*
X2575000Y1640000D03*
G01*
X2575000Y1540000D03*
G01*
X2575000Y1440000D03*
G01*
X2575000Y1340000D03*
G01*
X2575000Y1240000D03*
G01*
X2575000Y1140000D03*
G01*
X2575000Y1040000D03*
G01*
X2575000Y940000D03*
G01*
X2575000Y840000D03*
G01*
X2575000Y740000D03*
G01*
X2575000Y640000D03*
G01*
X2575000Y540000D03*
G01*
X2575000Y440000D03*
G01*
X2575000Y340000D03*
G01*
X2575000Y240000D03*
G01*
X2575000Y140000D03*
G01*
X3675000Y140000D03*
G01*
X3675000Y240000D03*
G01*
X3675000Y340000D03*
G01*
X3675000Y440000D03*
G01*
X3675000Y540000D03*
G01*
X3675000Y640000D03*
G01*
X3675000Y740000D03*
G01*
X3675000Y840000D03*
G01*
X3675000Y940000D03*
G01*
X3675000Y1040000D03*
G01*
X3675000Y1140000D03*
G01*
X3675000Y1240000D03*
G01*
X3675000Y1340000D03*
G01*
X3675000Y1440000D03*
G01*
X3675000Y1540000D03*
G01*
X3675000Y1640000D03*
G01*
X3675000Y1740000D03*
G01*
X3675000Y1840000D03*
G01*
X3675000Y1940000D03*
D16*
G01*
X697500Y2045000D03*
G01*
X697500Y1945000D03*
G01*
X697500Y1845000D03*
G01*
X697500Y1745000D03*
G01*
X697500Y1645000D03*
G01*
X697500Y1545000D03*
G01*
X697500Y1445000D03*
G01*
X697500Y1345000D03*
G01*
X1682500Y2045000D03*
G01*
X1682500Y1945000D03*
G01*
X1682500Y1845000D03*
G01*
X1682500Y1745000D03*
G01*
X1682500Y1645000D03*
G01*
X1682500Y1545000D03*
G01*
X1682500Y1445000D03*
G01*
X1682500Y1345000D03*
M02*
