G04 Layer: TopLayer*
G04 EasyEDA v6.5.51, 2025-11-17 10:52:57*
G04 3e288904024a45bc9db40e04d1f5bb92,1baaa656111f43739499d1d4c9c00a24,10*
G04 Gerber Generator version 0.2*
G04 Scale: 100 percent, Rotated: No, Reflected: No *
G04 Dimensions in inches *
G04 leading zeros omitted , absolute positions ,3 integer and 6 decimal *
%FSLAX36Y36*%
%MOIN*%

%AMMACRO1*21,1,$1,$2,0,0,$3*%
%ADD10C,0.0500*%
%ADD11R,0.0709X0.0709*%
%ADD12C,0.0709*%
%ADD13C,0.0906*%
%ADD14C,0.0600*%
%ADD15C,0.0184*%
%ADD16MACRO1,0.06X0.06X0.0000*%
%ADD17R,0.0700X0.0700*%
%ADD18C,0.0800*%

%LPD*%
D10*
X1540000Y-2465000D02*
G01*
X1280000Y-2465000D01*
X1040000Y-2225000D01*
X3185000Y-15000D02*
G01*
X3185000Y640000D01*
X1665000Y-2005000D02*
G01*
X1895000Y-1775000D01*
X3050000Y-1775000D01*
X470000Y-2385000D02*
G01*
X670000Y-2385000D01*
X1050000Y-2005000D01*
X1495000Y-3145000D02*
G01*
X885000Y-3145000D01*
X2925000Y175000D02*
G01*
X2925000Y710000D01*
X2925000Y-2410000D02*
G01*
X2925000Y-1930000D01*
X2030000Y1270000D02*
G01*
X2030000Y1495000D01*
X2090000Y1555000D01*
X1620000Y890000D02*
G01*
X1730000Y890000D01*
X1850000Y1010000D01*
X1615000Y50000D02*
G01*
X1615000Y595000D01*
X1680000Y660000D01*
X1890000Y1430000D02*
G01*
X1975000Y1515000D01*
X1975000Y1760000D01*
X1275000Y385000D02*
G01*
X1275000Y645000D01*
X1880000Y1250000D01*
X1980000Y-1490000D02*
G01*
X1980000Y-1230000D01*
X2090000Y-1120000D01*
X2090000Y-885000D01*
X1990000Y-785000D01*
X1980000Y-1490000D02*
G01*
X1980000Y-1230000D01*
X2090000Y-1120000D01*
X1860330Y-1474670D02*
G01*
X1860330Y-1194670D01*
X2010000Y-1045000D01*
X1770000Y-2555000D02*
G01*
X1830000Y-2495000D01*
X1830000Y-2175900D01*
X2585389Y-2530000D02*
G01*
X2585389Y-2405390D01*
X2400000Y-2220000D01*
X1495000Y-3145000D02*
G01*
X1785000Y-3145000D01*
X1545000Y815000D02*
G01*
X1780000Y815000D01*
X1953521Y988521D01*
X3760000Y-2435000D02*
G01*
X3780000Y-2415000D01*
X3990000Y-2415000D01*
D11*
G01*
X2255000Y1970000D03*
D12*
G01*
X2255000Y1870000D03*
G01*
X2255000Y1770000D03*
G01*
X2255000Y1670000D03*
G01*
X2255000Y1570000D03*
G01*
X2255000Y1470000D03*
G01*
X2255000Y1370000D03*
G01*
X2255000Y1270000D03*
G01*
X2255000Y1170000D03*
G01*
X2255000Y1070000D03*
G01*
X2255000Y970000D03*
G01*
X2255000Y870000D03*
G01*
X2255000Y770000D03*
G01*
X2255000Y670000D03*
G01*
X2255000Y570000D03*
G01*
X2255000Y470000D03*
G01*
X2255000Y370000D03*
G01*
X2255000Y270000D03*
G01*
X2255000Y170000D03*
G01*
X2255000Y70000D03*
D11*
G01*
X4035000Y1940000D03*
D12*
G01*
X4035000Y1840000D03*
G01*
X4035000Y1740000D03*
G01*
X4035000Y1640000D03*
G01*
X4035000Y1540000D03*
G01*
X4035000Y1440000D03*
G01*
X4035000Y1340000D03*
G01*
X4035000Y1240000D03*
G01*
X4035000Y1140000D03*
G01*
X4035000Y1040000D03*
G01*
X4035000Y940000D03*
G01*
X4035000Y840000D03*
G01*
X4035000Y740000D03*
G01*
X4035000Y640000D03*
G01*
X4035000Y540000D03*
G01*
X4035000Y440000D03*
G01*
X4035000Y340000D03*
G01*
X4035000Y240000D03*
G01*
X4035000Y140000D03*
G01*
X4035000Y40000D03*
D13*
G01*
X1700079Y-2889879D03*
G01*
X1059920Y-2889879D03*
D14*
G01*
X1239449Y-2859960D03*
G01*
X1279610Y-2930039D03*
G01*
X1319759Y-2859960D03*
G01*
X1359920Y-2930039D03*
G01*
X1400079Y-2859960D03*
G01*
X1440240Y-2930039D03*
G01*
X1480389Y-2859960D03*
D16*
G01*
X1520550Y-2930043D03*
D13*
G01*
X2805079Y-2869879D03*
G01*
X2164920Y-2869879D03*
D14*
G01*
X2344449Y-2839960D03*
G01*
X2384610Y-2910039D03*
G01*
X2424759Y-2839960D03*
G01*
X2464920Y-2910039D03*
G01*
X2505079Y-2839960D03*
G01*
X2545240Y-2910039D03*
G01*
X2585389Y-2839960D03*
D16*
G01*
X2625550Y-2910043D03*
D13*
G01*
X3805079Y-2874879D03*
G01*
X3164920Y-2874879D03*
D14*
G01*
X3344449Y-2844960D03*
G01*
X3384610Y-2915039D03*
G01*
X3424759Y-2844960D03*
G01*
X3464920Y-2915039D03*
G01*
X3505079Y-2844960D03*
G01*
X3545240Y-2915039D03*
G01*
X3585389Y-2844960D03*
D16*
G01*
X3625550Y-2915043D03*
D13*
G01*
X4735079Y-2874879D03*
G01*
X4094920Y-2874879D03*
D14*
G01*
X4274449Y-2844960D03*
G01*
X4314610Y-2915039D03*
G01*
X4354759Y-2844960D03*
G01*
X4394920Y-2915039D03*
G01*
X4435079Y-2844960D03*
G01*
X4475240Y-2915039D03*
G01*
X4515389Y-2844960D03*
D16*
G01*
X4555550Y-2915043D03*
D14*
G01*
X2575000Y1940000D03*
G01*
X2575000Y1840000D03*
G01*
X2575000Y1740000D03*
G01*
X2575000Y1640000D03*
G01*
X2575000Y1540000D03*
G01*
X2575000Y1440000D03*
G01*
X2575000Y1340000D03*
G01*
X2575000Y1240000D03*
G01*
X2575000Y1140000D03*
G01*
X2575000Y1040000D03*
G01*
X2575000Y940000D03*
G01*
X2575000Y840000D03*
G01*
X2575000Y740000D03*
G01*
X2575000Y640000D03*
G01*
X2575000Y540000D03*
G01*
X2575000Y440000D03*
G01*
X2575000Y340000D03*
G01*
X2575000Y240000D03*
G01*
X2575000Y140000D03*
G01*
X3675000Y140000D03*
G01*
X3675000Y240000D03*
G01*
X3675000Y340000D03*
G01*
X3675000Y440000D03*
G01*
X3675000Y540000D03*
G01*
X3675000Y640000D03*
G01*
X3675000Y740000D03*
G01*
X3675000Y840000D03*
G01*
X3675000Y940000D03*
G01*
X3675000Y1040000D03*
G01*
X3675000Y1140000D03*
G01*
X3675000Y1240000D03*
G01*
X3675000Y1340000D03*
G01*
X3675000Y1440000D03*
G01*
X3675000Y1540000D03*
G01*
X3675000Y1640000D03*
G01*
X3675000Y1740000D03*
G01*
X3675000Y1840000D03*
G01*
X3675000Y1940000D03*
D17*
G01*
X697500Y2045000D03*
G01*
X697500Y1945000D03*
G01*
X697500Y1845000D03*
G01*
X697500Y1745000D03*
G01*
X697500Y1645000D03*
G01*
X697500Y1545000D03*
G01*
X697500Y1445000D03*
G01*
X697500Y1345000D03*
G01*
X1682500Y2045000D03*
G01*
X1682500Y1945000D03*
G01*
X1682500Y1845000D03*
G01*
X1682500Y1745000D03*
G01*
X1682500Y1645000D03*
G01*
X1682500Y1545000D03*
G01*
X1682500Y1445000D03*
G01*
X1682500Y1345000D03*
D18*
G01*
X1545000Y815000D03*
G01*
X1953519Y988519D03*
G01*
X1495000Y-3145000D03*
G01*
X1785000Y-3145000D03*
G01*
X2585389Y-2530000D03*
G01*
X2400000Y-2220000D03*
G01*
X1770000Y-2555000D03*
G01*
X1830000Y-2175900D03*
G01*
X1860330Y-1474670D03*
G01*
X1980000Y-1490000D03*
G01*
X2010000Y-1045000D03*
G01*
X1990000Y-785000D03*
G01*
X1275000Y385000D03*
G01*
X1880000Y1250000D03*
G01*
X1890000Y1430000D03*
G01*
X1975000Y1760000D03*
G01*
X1615000Y50000D03*
G01*
X1680000Y660000D03*
G01*
X1620000Y890000D03*
G01*
X1850000Y1010000D03*
G01*
X2030000Y1270000D03*
G01*
X2090000Y1555000D03*
G01*
X2925000Y-2410000D03*
G01*
X2925000Y-1930000D03*
G01*
X2925000Y175000D03*
G01*
X2925000Y710000D03*
G01*
X885000Y-3145000D03*
G01*
X470000Y-2385000D03*
G01*
X1050000Y-2005000D03*
G01*
X1665000Y-2005000D03*
G01*
X3050000Y-1775000D03*
G01*
X3185000Y-15000D03*
G01*
X3185000Y640000D03*
G01*
X1540000Y-2465000D03*
G01*
X1040000Y-2225000D03*
G01*
X3760000Y-2435000D03*
G01*
X3990000Y-2415000D03*
M02*
